<svg width="249" height="70" viewBox="0 0 249 70" fill="none" xmlns="http://www.w3.org/2000/svg">
<path d="M66.895 24.3853H63.0542V31H60.8867V14.6484H66.2998C68.1416 14.6484 69.5566 15.0677 70.5449 15.9062C71.5407 16.7448 72.0386 17.9652 72.0386 19.5674C72.0386 20.5856 71.7616 21.4728 71.2075 22.229C70.661 22.9852 69.8973 23.5505 68.9165 23.9248L72.7573 30.8652V31H70.4438L66.895 24.3853ZM63.0542 22.6221H66.3672C67.4378 22.6221 68.2876 22.3451 68.9165 21.791C69.5529 21.237 69.8711 20.4958 69.8711 19.5674C69.8711 18.5566 69.5679 17.7817 68.9614 17.2427C68.3625 16.7036 67.494 16.4303 66.356 16.4229H63.0542V22.6221ZM82.2471 31C82.1273 30.7604 82.0299 30.3337 81.9551 29.7197C80.9893 30.723 79.8363 31.2246 78.4961 31.2246C77.2982 31.2246 76.3136 30.8877 75.5425 30.2139C74.7788 29.5326 74.397 28.6715 74.397 27.6309C74.397 26.3656 74.8761 25.3848 75.8345 24.6885C76.8003 23.9847 78.1554 23.6328 79.8999 23.6328H81.9214V22.6782C81.9214 21.952 81.7043 21.3755 81.27 20.9487C80.8358 20.5145 80.1956 20.2974 79.3496 20.2974C78.6084 20.2974 77.987 20.4845 77.4854 20.8589C76.9837 21.2332 76.7329 21.6862 76.7329 22.2178H74.644C74.644 21.6113 74.8574 21.0273 75.2842 20.4658C75.7184 19.8968 76.3024 19.4476 77.0361 19.1182C77.7773 18.7887 78.5897 18.624 79.4731 18.624C80.8732 18.624 81.9701 18.9759 82.7637 19.6797C83.5573 20.376 83.9691 21.3381 83.999 22.5659V28.1587C83.999 29.2743 84.1413 30.1615 84.4258 30.8203V31H82.2471ZM78.7993 29.4165C79.4507 29.4165 80.0684 29.248 80.6523 28.9111C81.2363 28.5742 81.6593 28.1362 81.9214 27.5972V25.104H80.293C77.7474 25.104 76.4746 25.849 76.4746 27.3389C76.4746 27.9902 76.6917 28.4993 77.126 28.8662C77.5602 29.2331 78.118 29.4165 78.7993 29.4165ZM89.2212 18.8486L89.2886 20.376C90.217 19.208 91.4299 18.624 92.9272 18.624C95.4953 18.624 96.7905 20.0728 96.813 22.9702V31H94.7354V22.959C94.7279 22.083 94.5257 21.4354 94.1289 21.0161C93.7396 20.5968 93.1294 20.3872 92.2983 20.3872C91.6245 20.3872 91.033 20.5669 90.5239 20.9263C90.0148 21.2856 89.618 21.7573 89.3335 22.3413V31H87.2559V18.8486H89.2212ZM104.82 29.5288C105.562 29.5288 106.209 29.3042 106.763 28.855C107.317 28.4058 107.624 27.8442 107.684 27.1704H109.649C109.612 27.8667 109.372 28.5293 108.931 29.1582C108.489 29.7871 107.897 30.2887 107.156 30.6631C106.423 31.0374 105.644 31.2246 104.82 31.2246C103.166 31.2246 101.848 30.6743 100.867 29.5737C99.8939 28.4657 99.4072 26.9533 99.4072 25.0366V24.6885C99.4072 23.5055 99.6243 22.4536 100.059 21.5327C100.493 20.6118 101.114 19.8968 101.923 19.3877C102.739 18.8786 103.701 18.624 104.809 18.624C106.172 18.624 107.302 19.0321 108.201 19.8481C109.107 20.6642 109.59 21.7236 109.649 23.0264H107.684C107.624 22.2402 107.325 21.5964 106.786 21.0947C106.254 20.5856 105.595 20.3311 104.809 20.3311C103.753 20.3311 102.934 20.7129 102.35 21.4766C101.773 22.2327 101.485 23.3296 101.485 24.7671V25.1602C101.485 26.5602 101.773 27.6383 102.35 28.3945C102.926 29.1507 103.75 29.5288 104.82 29.5288ZM114.243 31H112.165V18.8486H114.243V31ZM111.997 15.6255C111.997 15.2886 112.098 15.0041 112.3 14.772C112.509 14.5399 112.816 14.4238 113.221 14.4238C113.625 14.4238 113.932 14.5399 114.142 14.772C114.351 15.0041 114.456 15.2886 114.456 15.6255C114.456 15.9624 114.351 16.2432 114.142 16.4678C113.932 16.6924 113.625 16.8047 113.221 16.8047C112.816 16.8047 112.509 16.6924 112.3 16.4678C112.098 16.2432 111.997 15.9624 111.997 15.6255ZM117.073 24.8232C117.073 22.959 117.514 21.4616 118.398 20.3311C119.281 19.193 120.438 18.624 121.868 18.624C123.291 18.624 124.417 19.1107 125.249 20.084V13.75H127.326V31H125.417L125.316 29.6973C124.485 30.7155 123.328 31.2246 121.846 31.2246C120.438 31.2246 119.289 30.6481 118.398 29.4951C117.514 28.3421 117.073 26.8372 117.073 24.9805V24.8232ZM119.15 25.0591C119.15 26.4367 119.435 27.5148 120.004 28.2935C120.573 29.0721 121.359 29.4614 122.362 29.4614C123.68 29.4614 124.642 28.87 125.249 27.687V22.1055C124.627 20.96 123.673 20.3872 122.385 20.3872C121.367 20.3872 120.573 20.7803 120.004 21.5664C119.435 22.3525 119.15 23.5168 119.15 25.0591ZM147.44 16.4229H142.184V31H140.039V16.4229H134.794V14.6484H147.44V16.4229ZM147.867 24.812C147.867 23.6216 148.099 22.5509 148.563 21.6001C149.035 20.6493 149.686 19.9155 150.517 19.3989C151.356 18.8823 152.31 18.624 153.381 18.624C155.035 18.624 156.372 19.1968 157.39 20.3423C158.416 21.4878 158.929 23.0114 158.929 24.9131V25.0591C158.929 26.242 158.7 27.3052 158.244 28.2485C157.794 29.1844 157.147 29.9144 156.301 30.4385C155.462 30.9626 154.496 31.2246 153.403 31.2246C151.756 31.2246 150.42 30.6519 149.394 29.5063C148.376 28.3608 147.867 26.8447 147.867 24.958V24.812ZM149.956 25.0591C149.956 26.4067 150.266 27.4886 150.888 28.3047C151.517 29.1208 152.355 29.5288 153.403 29.5288C154.459 29.5288 155.298 29.117 155.919 28.2935C156.54 27.4624 156.851 26.3019 156.851 24.812C156.851 23.4793 156.533 22.4012 155.896 21.5776C155.268 20.7466 154.429 20.3311 153.381 20.3311C152.355 20.3311 151.528 20.7391 150.899 21.5552C150.27 22.3713 149.956 23.5392 149.956 25.0591ZM163.488 18.8486L163.544 20.1963C164.435 19.1481 165.637 18.624 167.149 18.624C168.849 18.624 170.006 19.2754 170.62 20.5781C171.024 19.9941 171.548 19.5225 172.192 19.1631C172.843 18.8037 173.611 18.624 174.494 18.624C177.16 18.624 178.515 20.0353 178.56 22.8579V31H176.482V22.9814C176.482 22.113 176.284 21.4653 175.887 21.0386C175.49 20.6043 174.824 20.3872 173.888 20.3872C173.117 20.3872 172.476 20.6193 171.967 21.0835C171.458 21.5402 171.162 22.1579 171.08 22.9365V31H168.991V23.0376C168.991 21.2707 168.126 20.3872 166.397 20.3872C165.034 20.3872 164.102 20.9674 163.601 22.1279V31H161.523V18.8486H163.488ZM189.206 31C189.086 30.7604 188.989 30.3337 188.914 29.7197C187.948 30.723 186.795 31.2246 185.455 31.2246C184.257 31.2246 183.273 30.8877 182.501 30.2139C181.738 29.5326 181.356 28.6715 181.356 27.6309C181.356 26.3656 181.835 25.3848 182.793 24.6885C183.759 23.9847 185.114 23.6328 186.859 23.6328H188.88V22.6782C188.88 21.952 188.663 21.3755 188.229 20.9487C187.795 20.5145 187.155 20.2974 186.309 20.2974C185.567 20.2974 184.946 20.4845 184.444 20.8589C183.943 21.2332 183.692 21.6862 183.692 22.2178H181.603C181.603 21.6113 181.816 21.0273 182.243 20.4658C182.677 19.8968 183.261 19.4476 183.995 19.1182C184.736 18.7887 185.549 18.624 186.432 18.624C187.832 18.624 188.929 18.9759 189.723 19.6797C190.516 20.376 190.928 21.3381 190.958 22.5659V28.1587C190.958 29.2743 191.1 30.1615 191.385 30.8203V31H189.206ZM185.758 29.4165C186.41 29.4165 187.027 29.248 187.611 28.9111C188.195 28.5742 188.618 28.1362 188.88 27.5972V25.104H187.252C184.706 25.104 183.434 25.849 183.434 27.3389C183.434 27.9902 183.651 28.4993 184.085 28.8662C184.519 29.2331 185.077 29.4165 185.758 29.4165ZM197.034 15.9062V18.8486H199.302V20.4546H197.034V27.9902C197.034 28.4769 197.135 28.8438 197.337 29.0908C197.539 29.3304 197.883 29.4502 198.37 29.4502C198.61 29.4502 198.939 29.4053 199.358 29.3154V31C198.812 31.1497 198.28 31.2246 197.764 31.2246C196.835 31.2246 196.135 30.9438 195.664 30.3823C195.192 29.8208 194.956 29.0234 194.956 27.9902V20.4546H192.744V18.8486H194.956V15.9062H197.034ZM203.997 31H201.919V18.8486H203.997V31ZM201.75 15.6255C201.75 15.2886 201.852 15.0041 202.054 14.772C202.263 14.5399 202.57 14.4238 202.975 14.4238C203.379 14.4238 203.686 14.5399 203.896 14.772C204.105 15.0041 204.21 15.2886 204.21 15.6255C204.21 15.9624 204.105 16.2432 203.896 16.4678C203.686 16.6924 203.379 16.8047 202.975 16.8047C202.57 16.8047 202.263 16.6924 202.054 16.4678C201.852 16.2432 201.75 15.9624 201.75 15.6255ZM209.589 31H207.512V13.75H209.589V31ZM215.182 31H213.104V13.75H215.182V31ZM217.967 24.812C217.967 23.6216 218.199 22.5509 218.664 21.6001C219.135 20.6493 219.787 19.9155 220.618 19.3989C221.456 18.8823 222.411 18.624 223.481 18.624C225.136 18.624 226.472 19.1968 227.491 20.3423C228.516 21.4878 229.029 23.0114 229.029 24.9131V25.0591C229.029 26.242 228.801 27.3052 228.344 28.2485C227.895 29.1844 227.247 29.9144 226.401 30.4385C225.563 30.9626 224.597 31.2246 223.504 31.2246C221.857 31.2246 220.52 30.6519 219.495 29.5063C218.476 28.3608 217.967 26.8447 217.967 24.958V24.812ZM220.056 25.0591C220.056 26.4067 220.367 27.4886 220.988 28.3047C221.617 29.1208 222.456 29.5288 223.504 29.5288C224.56 29.5288 225.398 29.117 226.02 28.2935C226.641 27.4624 226.952 26.3019 226.952 24.812C226.952 23.4793 226.633 22.4012 225.997 21.5776C225.368 20.7466 224.53 20.3311 223.481 20.3311C222.456 20.3311 221.628 20.7391 221 21.5552C220.371 22.3713 220.056 23.5392 220.056 25.0591ZM238.71 27.7769C238.71 27.2153 238.497 26.7811 238.07 26.4741C237.651 26.1597 236.913 25.8901 235.857 25.6655C234.809 25.4409 233.974 25.1714 233.353 24.8569C232.739 24.5425 232.282 24.1681 231.983 23.7339C231.691 23.2996 231.545 22.783 231.545 22.1841C231.545 21.1883 231.964 20.346 232.803 19.6572C233.649 18.9684 234.727 18.624 236.037 18.624C237.415 18.624 238.53 18.9797 239.384 19.6909C240.245 20.4022 240.675 21.3118 240.675 22.4199H238.586C238.586 21.8509 238.343 21.3605 237.856 20.9487C237.377 20.5369 236.771 20.3311 236.037 20.3311C235.281 20.3311 234.689 20.4958 234.263 20.8252C233.836 21.1546 233.623 21.5851 233.623 22.1167C233.623 22.6183 233.821 22.9964 234.218 23.251C234.615 23.5055 235.33 23.7489 236.363 23.981C237.403 24.2131 238.246 24.4901 238.89 24.812C239.534 25.134 240.009 25.5233 240.316 25.98C240.63 26.4292 240.788 26.9795 240.788 27.6309C240.788 28.7165 240.353 29.5887 239.485 30.2476C238.616 30.8989 237.49 31.2246 236.104 31.2246C235.131 31.2246 234.27 31.0524 233.521 30.708C232.773 30.3636 232.185 29.8844 231.758 29.2705C231.339 28.6491 231.129 27.979 231.129 27.2603H233.207C233.244 27.9565 233.521 28.5106 234.038 28.9224C234.562 29.3267 235.251 29.5288 236.104 29.5288C236.891 29.5288 237.52 29.3716 237.991 29.0571C238.47 28.7352 238.71 28.3084 238.71 27.7769Z" fill="#3C896D"/>
<path d="M66.5938 49.9766H61.8203V55H60.3203V43.625H67.3672V44.8594H61.8203V48.75H66.5938V49.9766ZM68.3828 50.6953C68.3828 49.8672 68.5443 49.1224 68.8672 48.4609C69.1953 47.7995 69.6484 47.2891 70.2266 46.9297C70.8099 46.5703 71.474 46.3906 72.2188 46.3906C73.3698 46.3906 74.2995 46.7891 75.0078 47.5859C75.7214 48.3828 76.0781 49.4427 76.0781 50.7656V50.8672C76.0781 51.6901 75.9193 52.4297 75.6016 53.0859C75.2891 53.737 74.8385 54.2448 74.25 54.6094C73.6667 54.974 72.9948 55.1562 72.2344 55.1562C71.0885 55.1562 70.1589 54.7578 69.4453 53.9609C68.737 53.1641 68.3828 52.1094 68.3828 50.7969V50.6953ZM69.8359 50.8672C69.8359 51.8047 70.0521 52.5573 70.4844 53.125C70.9219 53.6927 71.5052 53.9766 72.2344 53.9766C72.9688 53.9766 73.5521 53.6901 73.9844 53.1172C74.4167 52.5391 74.6328 51.7318 74.6328 50.6953C74.6328 49.7682 74.4115 49.0182 73.9688 48.4453C73.5312 47.8672 72.9479 47.5781 72.2188 47.5781C71.5052 47.5781 70.9297 47.862 70.4922 48.4297C70.0547 48.9974 69.8359 49.8099 69.8359 50.8672ZM81.9766 47.8438C81.7578 47.8073 81.5208 47.7891 81.2656 47.7891C80.3177 47.7891 79.6745 48.1927 79.3359 49V55H77.8906V46.5469H79.2969L79.3203 47.5234C79.7943 46.7682 80.4661 46.3906 81.3359 46.3906C81.6172 46.3906 81.8307 46.4271 81.9766 46.5V47.8438ZM92.5 55C92.4167 54.8333 92.349 54.5365 92.2969 54.1094C91.625 54.8073 90.8229 55.1562 89.8906 55.1562C89.0573 55.1562 88.3724 54.9219 87.8359 54.4531C87.3047 53.9792 87.0391 53.3802 87.0391 52.6562C87.0391 51.776 87.3724 51.0938 88.0391 50.6094C88.7109 50.1198 89.6536 49.875 90.8672 49.875H92.2734V49.2109C92.2734 48.7057 92.1224 48.3047 91.8203 48.0078C91.5182 47.7057 91.0729 47.5547 90.4844 47.5547C89.9688 47.5547 89.5365 47.6849 89.1875 47.9453C88.8385 48.2057 88.6641 48.5208 88.6641 48.8906H87.2109C87.2109 48.4688 87.3594 48.0625 87.6562 47.6719C87.9583 47.276 88.3646 46.9635 88.875 46.7344C89.3906 46.5052 89.9557 46.3906 90.5703 46.3906C91.5443 46.3906 92.3073 46.6354 92.8594 47.125C93.4115 47.6094 93.6979 48.2786 93.7188 49.1328V53.0234C93.7188 53.7995 93.8177 54.4167 94.0156 54.875V55H92.5ZM90.1016 53.8984C90.5547 53.8984 90.9844 53.7812 91.3906 53.5469C91.7969 53.3125 92.0911 53.0078 92.2734 52.6328V50.8984H91.1406C89.3698 50.8984 88.4844 51.4167 88.4844 52.4531C88.4844 52.9062 88.6354 53.2604 88.9375 53.5156C89.2396 53.7708 89.6276 53.8984 90.1016 53.8984ZM97.5547 55H96.1094V43H97.5547V55ZM101.445 55H100V43H101.445V55ZM110.5 52.8828L112.469 46.5469H114.016L110.617 56.3047C110.091 57.7109 109.255 58.4141 108.109 58.4141L107.836 58.3906L107.297 58.2891V57.1172L107.688 57.1484C108.177 57.1484 108.557 57.0495 108.828 56.8516C109.104 56.6536 109.331 56.2917 109.508 55.7656L109.828 54.9062L106.812 46.5469H108.391L110.5 52.8828ZM114.805 50.6953C114.805 49.8672 114.966 49.1224 115.289 48.4609C115.617 47.7995 116.07 47.2891 116.648 46.9297C117.232 46.5703 117.896 46.3906 118.641 46.3906C119.792 46.3906 120.721 46.7891 121.43 47.5859C122.143 48.3828 122.5 49.4427 122.5 50.7656V50.8672C122.5 51.6901 122.341 52.4297 122.023 53.0859C121.711 53.737 121.26 54.2448 120.672 54.6094C120.089 54.974 119.417 55.1562 118.656 55.1562C117.51 55.1562 116.581 54.7578 115.867 53.9609C115.159 53.1641 114.805 52.1094 114.805 50.7969V50.6953ZM116.258 50.8672C116.258 51.8047 116.474 52.5573 116.906 53.125C117.344 53.6927 117.927 53.9766 118.656 53.9766C119.391 53.9766 119.974 53.6901 120.406 53.1172C120.839 52.5391 121.055 51.7318 121.055 50.6953C121.055 49.7682 120.833 49.0182 120.391 48.4453C119.953 47.8672 119.37 47.5781 118.641 47.5781C117.927 47.5781 117.352 47.862 116.914 48.4297C116.477 48.9974 116.258 49.8099 116.258 50.8672ZM129.531 54.1641C128.969 54.8255 128.143 55.1562 127.055 55.1562C126.154 55.1562 125.466 54.8958 124.992 54.375C124.523 53.849 124.286 53.0729 124.281 52.0469V46.5469H125.727V52.0078C125.727 53.2891 126.247 53.9297 127.289 53.9297C128.393 53.9297 129.128 53.5182 129.492 52.6953V46.5469H130.938V55H129.562L129.531 54.1641ZM137.227 47.8438C137.008 47.8073 136.771 47.7891 136.516 47.7891C135.568 47.7891 134.924 48.1927 134.586 49V55H133.141V46.5469H134.547L134.57 47.5234C135.044 46.7682 135.716 46.3906 136.586 46.3906C136.867 46.3906 137.081 46.4271 137.227 46.5V47.8438ZM143.891 46.5469L143.93 47.4844C144.549 46.7552 145.385 46.3906 146.438 46.3906C147.62 46.3906 148.424 46.8438 148.852 47.75C149.133 47.3438 149.497 47.0156 149.945 46.7656C150.398 46.5156 150.932 46.3906 151.547 46.3906C153.401 46.3906 154.344 47.3724 154.375 49.3359V55H152.93V49.4219C152.93 48.8177 152.792 48.3672 152.516 48.0703C152.24 47.7682 151.776 47.6172 151.125 47.6172C150.589 47.6172 150.143 47.7786 149.789 48.1016C149.435 48.4193 149.229 48.849 149.172 49.3906V55H147.719V49.4609C147.719 48.2318 147.117 47.6172 145.914 47.6172C144.966 47.6172 144.318 48.0208 143.969 48.8281V55H142.523V46.5469H143.891ZM156.18 50.6953C156.18 49.8672 156.341 49.1224 156.664 48.4609C156.992 47.7995 157.445 47.2891 158.023 46.9297C158.607 46.5703 159.271 46.3906 160.016 46.3906C161.167 46.3906 162.096 46.7891 162.805 47.5859C163.518 48.3828 163.875 49.4427 163.875 50.7656V50.8672C163.875 51.6901 163.716 52.4297 163.398 53.0859C163.086 53.737 162.635 54.2448 162.047 54.6094C161.464 54.974 160.792 55.1562 160.031 55.1562C158.885 55.1562 157.956 54.7578 157.242 53.9609C156.534 53.1641 156.18 52.1094 156.18 50.7969V50.6953ZM157.633 50.8672C157.633 51.8047 157.849 52.5573 158.281 53.125C158.719 53.6927 159.302 53.9766 160.031 53.9766C160.766 53.9766 161.349 53.6901 161.781 53.1172C162.214 52.5391 162.43 51.7318 162.43 50.6953C162.43 49.7682 162.208 49.0182 161.766 48.4453C161.328 47.8672 160.745 47.5781 160.016 47.5781C159.302 47.5781 158.727 47.862 158.289 48.4297C157.852 48.9974 157.633 49.8099 157.633 50.8672ZM168.352 53.0391L170.445 46.5469H171.922L168.891 55H167.789L164.727 46.5469H166.203L168.352 53.0391ZM174.883 55H173.438V46.5469H174.883V55ZM173.32 44.3047C173.32 44.0703 173.391 43.8724 173.531 43.7109C173.677 43.5495 173.891 43.4688 174.172 43.4688C174.453 43.4688 174.667 43.5495 174.812 43.7109C174.958 43.8724 175.031 44.0703 175.031 44.3047C175.031 44.5391 174.958 44.7344 174.812 44.8906C174.667 45.0469 174.453 45.125 174.172 45.125C173.891 45.125 173.677 45.0469 173.531 44.8906C173.391 44.7344 173.32 44.5391 173.32 44.3047ZM180.711 55.1562C179.565 55.1562 178.633 54.7812 177.914 54.0312C177.195 53.276 176.836 52.2682 176.836 51.0078V50.7422C176.836 49.9036 176.995 49.1562 177.312 48.5C177.635 47.8385 178.083 47.3229 178.656 46.9531C179.234 46.5781 179.859 46.3906 180.531 46.3906C181.63 46.3906 182.484 46.7526 183.094 47.4766C183.703 48.2005 184.008 49.237 184.008 50.5859V51.1875H178.281C178.302 52.0208 178.544 52.6953 179.008 53.2109C179.477 53.7214 180.07 53.9766 180.789 53.9766C181.299 53.9766 181.732 53.8724 182.086 53.6641C182.44 53.4557 182.75 53.1797 183.016 52.8359L183.898 53.5234C183.19 54.612 182.128 55.1562 180.711 55.1562ZM180.531 47.5781C179.948 47.5781 179.458 47.7917 179.062 48.2188C178.667 48.6406 178.422 49.2344 178.328 50H182.562V49.8906C182.521 49.1562 182.323 48.5885 181.969 48.1875C181.615 47.7812 181.135 47.5781 180.531 47.5781ZM193.742 47.8438C193.523 47.8073 193.286 47.7891 193.031 47.7891C192.083 47.7891 191.44 48.1927 191.102 49V55H189.656V46.5469H191.062L191.086 47.5234C191.56 46.7682 192.232 46.3906 193.102 46.3906C193.383 46.3906 193.596 46.4271 193.742 46.5V47.8438ZM199.984 55C199.901 54.8333 199.833 54.5365 199.781 54.1094C199.109 54.8073 198.307 55.1562 197.375 55.1562C196.542 55.1562 195.857 54.9219 195.32 54.4531C194.789 53.9792 194.523 53.3802 194.523 52.6562C194.523 51.776 194.857 51.0938 195.523 50.6094C196.195 50.1198 197.138 49.875 198.352 49.875H199.758V49.2109C199.758 48.7057 199.607 48.3047 199.305 48.0078C199.003 47.7057 198.557 47.5547 197.969 47.5547C197.453 47.5547 197.021 47.6849 196.672 47.9453C196.323 48.2057 196.148 48.5208 196.148 48.8906H194.695C194.695 48.4688 194.844 48.0625 195.141 47.6719C195.443 47.276 195.849 46.9635 196.359 46.7344C196.875 46.5052 197.44 46.3906 198.055 46.3906C199.029 46.3906 199.792 46.6354 200.344 47.125C200.896 47.6094 201.182 48.2786 201.203 49.1328V53.0234C201.203 53.7995 201.302 54.4167 201.5 54.875V55H199.984ZM197.586 53.8984C198.039 53.8984 198.469 53.7812 198.875 53.5469C199.281 53.3125 199.576 53.0078 199.758 52.6328V50.8984H198.625C196.854 50.8984 195.969 51.4167 195.969 52.4531C195.969 52.9062 196.12 53.2604 196.422 53.5156C196.724 53.7708 197.112 53.8984 197.586 53.8984ZM205.43 44.5V46.5469H207.008V47.6641H205.43V52.9062C205.43 53.2448 205.5 53.5 205.641 53.6719C205.781 53.8385 206.021 53.9219 206.359 53.9219C206.526 53.9219 206.755 53.8906 207.047 53.8281V55C206.667 55.1042 206.297 55.1562 205.938 55.1562C205.292 55.1562 204.805 54.9609 204.477 54.5703C204.148 54.1797 203.984 53.625 203.984 52.9062V47.6641H202.445V46.5469H203.984V44.5H205.43ZM210.273 55H208.828V46.5469H210.273V55ZM208.711 44.3047C208.711 44.0703 208.781 43.8724 208.922 43.7109C209.068 43.5495 209.281 43.4688 209.562 43.4688C209.844 43.4688 210.057 43.5495 210.203 43.7109C210.349 43.8724 210.422 44.0703 210.422 44.3047C210.422 44.5391 210.349 44.7344 210.203 44.8906C210.057 45.0469 209.844 45.125 209.562 45.125C209.281 45.125 209.068 45.0469 208.922 44.8906C208.781 44.7344 208.711 44.5391 208.711 44.3047ZM213.961 46.5469L214.008 47.6094C214.654 46.7969 215.497 46.3906 216.539 46.3906C218.326 46.3906 219.227 47.3984 219.242 49.4141V55H217.797V49.4062C217.792 48.7969 217.651 48.3464 217.375 48.0547C217.104 47.763 216.68 47.6172 216.102 47.6172C215.633 47.6172 215.221 47.7422 214.867 47.9922C214.513 48.2422 214.237 48.5703 214.039 48.9766V55H212.594V46.5469H213.961ZM221.078 50.7031C221.078 49.3854 221.383 48.3385 221.992 47.5625C222.602 46.7812 223.409 46.3906 224.414 46.3906C225.445 46.3906 226.25 46.7552 226.828 47.4844L226.898 46.5469H228.219V54.7969C228.219 55.8906 227.893 56.7526 227.242 57.3828C226.596 58.013 225.727 58.3281 224.633 58.3281C224.023 58.3281 223.427 58.1979 222.844 57.9375C222.26 57.6771 221.815 57.3203 221.508 56.8672L222.258 56C222.878 56.7656 223.635 57.1484 224.531 57.1484C225.234 57.1484 225.781 56.9505 226.172 56.5547C226.568 56.1589 226.766 55.6016 226.766 54.8828V54.1562C226.188 54.8229 225.398 55.1562 224.398 55.1562C223.409 55.1562 222.607 54.7578 221.992 53.9609C221.383 53.1641 221.078 52.0781 221.078 50.7031ZM222.531 50.8672C222.531 51.8203 222.727 52.5703 223.117 53.1172C223.508 53.6589 224.055 53.9297 224.758 53.9297C225.669 53.9297 226.339 53.5156 226.766 52.6875V48.8281C226.323 48.0208 225.659 47.6172 224.773 47.6172C224.07 47.6172 223.521 47.8906 223.125 48.4375C222.729 48.9844 222.531 49.7943 222.531 50.8672ZM235.328 52.7578C235.328 52.3672 235.18 52.0651 234.883 51.8516C234.591 51.6328 234.078 51.4453 233.344 51.2891C232.615 51.1328 232.034 50.9453 231.602 50.7266C231.174 50.5078 230.857 50.2474 230.648 49.9453C230.445 49.6432 230.344 49.2839 230.344 48.8672C230.344 48.1745 230.635 47.5885 231.219 47.1094C231.807 46.6302 232.557 46.3906 233.469 46.3906C234.427 46.3906 235.203 46.638 235.797 47.1328C236.396 47.6276 236.695 48.2604 236.695 49.0312H235.242C235.242 48.6354 235.073 48.2943 234.734 48.0078C234.401 47.7214 233.979 47.5781 233.469 47.5781C232.943 47.5781 232.531 47.6927 232.234 47.9219C231.938 48.151 231.789 48.4505 231.789 48.8203C231.789 49.1693 231.927 49.4323 232.203 49.6094C232.479 49.7865 232.977 49.9557 233.695 50.1172C234.419 50.2786 235.005 50.4714 235.453 50.6953C235.901 50.9193 236.232 51.1901 236.445 51.5078C236.664 51.8203 236.773 52.2031 236.773 52.6562C236.773 53.4115 236.471 54.0182 235.867 54.4766C235.263 54.9297 234.479 55.1562 233.516 55.1562C232.839 55.1562 232.24 55.0365 231.719 54.7969C231.198 54.5573 230.789 54.224 230.492 53.7969C230.201 53.3646 230.055 52.8984 230.055 52.3984H231.5C231.526 52.8828 231.719 53.2682 232.078 53.5547C232.443 53.8359 232.922 53.9766 233.516 53.9766C234.062 53.9766 234.5 53.8672 234.828 53.6484C235.161 53.4245 235.328 53.1276 235.328 52.7578Z" fill="#3C896D"/>
<path d="M59 38H239.552" stroke="#3C896D" stroke-width="2"/>
<path d="M23.4545 70C36.4081 70 45.7538 62.2999 46.909 46.8999C47.9592 32.8999 39.9076 25.2 23.4545 25.2C10.5009 25.2 0 31.1499 0 46.8999C0 59.6577 8.75168 70 23.4545 70Z" fill="#4EBC94"/>
<path d="M15.777 30.0999C10.9927 30.2166 1.56419 33.5999 2.12429 46.1999C2.6844 58.7999 10.526 64.5167 14.3768 65.8C16.7105 66.7333 23.1283 68.04 30.1297 65.8C30.1297 65.8 27.4725 65.8984 24.5286 65.8C23.0882 65.7519 21.3541 65.45 20.3278 65.45L31.88 63.35H22.4043C18.5536 63.35 15.0768 62.65 15.0768 62.65C15.0768 62.65 19.9538 61.5999 23.8046 61.2499C27.6553 60.8999 35.7308 59.85 35.7308 59.85C30.013 60.0833 17.1533 60.5499 13.3265 59.5C13.3265 59.5 21.004 57.0499 36.0808 56.7C36.0808 56.7 26.9552 55.9999 20.654 55.9999C14.3527 55.9999 11.2261 55.3 11.2261 55.3C18.8971 54.7173 25.5549 54.5999 34.6806 53.8999C21.1701 53.4571 15.7704 53.0555 10.1759 52.1499L20.3278 51.0999L37.8312 49.6999C25.8768 49.4321 19.6238 49.1805 9.47574 48.2999C9.47574 48.2999 19.2537 47.9499 24.8787 47.5999C30.5037 47.2499 38.1812 45.8499 38.1812 45.8499H23.8285C18.9515 45.8499 9.47574 44.7999 9.47574 44.7999C9.47574 44.7999 19.3015 44.0999 24.5286 44.0999C29.7557 44.0999 37.131 42.6999 37.131 42.6999H21.378C18.2274 42.6999 9.47574 41.6499 9.47574 41.6499C9.47574 41.6499 21.3781 41.2999 23.4784 40.9499C25.5788 40.5999 33.6304 39.8999 33.6304 39.8999C33.6304 39.8999 24.1546 39.8999 20.6779 39.5499C17.2011 39.1999 10.5259 38.4999 10.5259 38.4999C17.2394 37.7984 20.4985 37.6203 25.5788 37.4499C20.0716 36.4924 17.1171 36.2438 12.2763 36.0499C16.0186 35.3321 18.552 35.1812 23.8285 35.3499C21.0101 34.485 19.0686 34.0868 14.7267 33.5999C16.3257 33.1744 17.8947 33.0767 22.4282 33.2499C21.1766 32.6594 20.5163 32.3173 17.5273 32.1999C18.6978 31.7658 19.4947 31.5866 21.378 31.4999C20.7946 30.9166 18.8577 29.8199 15.777 30.0999Z" fill="#3C896D"/>
<path d="M14.1658 26.5999C12.8822 25.7833 11.0853 24.7799 9.96507 24.4999C8.56481 24.1499 16.6163 23.7999 17.3165 24.4999C17.8766 25.0599 16.6163 20.0666 15.9162 17.4999L21.5173 23.7999H22.2174V20.2999H23.9678L24.3178 23.4499C25.7181 22.8666 28.8687 21.2799 30.269 19.5999C31.6692 17.9199 29.6855 22.1666 28.5186 24.4999C30.269 24.0333 36.2201 22.7499 36.2201 22.7499C36.2201 22.7499 34.9365 24.2666 33.0695 25.1999L36.2201 29.7499C36.2201 29.7499 33.7966 26.2499 29.9188 27.2999C29.6475 27.3734 29.9371 27.5807 30.3748 27.8941L30.3749 27.8942C30.7905 28.1917 31.3397 28.585 31.6691 29.0499C32.3162 29.9633 32.7193 31.1499 32.7193 31.1499C29.9188 29.3999 29.5014 29.2068 27.1182 28.6999C26.4301 28.5536 25.7356 28.412 25.0496 28.2721L25.0493 28.272C22.9502 27.8441 20.9306 27.4323 19.4168 26.9499C18.31 26.5972 15.566 26.2499 14.1658 26.5999Z" fill="#3C896D"/>
<path d="M8.05154 11.2C8.45713 12.395 8.6266 13.8087 7.5764 16.2587C6.5755 18.5937 7.80063 19.9655 9.10174 21.7C8.98506 20.7666 8.05154 18.2 8.40161 17.15C8.75168 16.1 9.80188 12.95 9.45181 11.55C9.10174 10.15 7.5764 8.4 6.30121 7C6.65128 8.05 7.5764 9.79999 8.05154 11.2Z" fill="#3C896D"/>
<path d="M16.4532 4.19999C16.8587 5.39505 17.0282 6.80873 15.978 9.25873C14.9771 11.5937 16.2022 12.9655 17.5034 14.7C17.3867 13.7666 16.4532 11.2 16.8032 10.15C17.1533 9.09998 18.2035 5.94999 17.8534 4.54999C17.5034 3.14999 15.978 1.4 14.7028 0C15.0529 1.05 15.978 2.79999 16.4532 4.19999Z" fill="#3C896D"/>
<path d="M24.1546 8.4C24.5602 9.59506 24.7297 11.0087 23.6795 13.4587C22.6786 15.7937 23.9037 17.1655 25.2048 18.9C25.0881 17.9667 24.1546 15.4 24.5047 14.35C24.8548 13.3 25.905 10.15 25.5549 8.75C25.2048 7.35001 23.6795 5.60001 22.4043 4.20001C22.7544 5.25001 23.6795 7.00001 24.1546 8.4Z" fill="#3C896D"/>
<path d="M33.9565 4.19999C34.3621 5.39505 34.5316 6.80873 33.4814 9.25873C32.4805 11.5937 33.7056 12.9655 35.0067 14.7C34.89 13.7666 33.9565 11.2 34.3066 10.15C34.6566 9.09998 35.7068 5.94999 35.3568 4.54999C35.0067 3.14999 33.4814 1.4 32.2062 0C32.5562 1.05 33.4814 2.79999 33.9565 4.19999Z" fill="#3C896D"/>
</svg>
